<svg width="16" height="20" viewBox="0 0 16 20" fill="none" xmlns="http://www.w3.org/2000/svg">
<path d="M15.0399 8.33335C15.0399 13.3334 8.37321 18.3334 8.37321 18.3334C8.37321 18.3334 1.70654 13.3334 1.70654 8.33335C1.70654 6.56524 2.40892 4.86955 3.65916 3.61931C4.90941 2.36907 6.6051 1.66669 8.37321 1.66669C10.1413 1.66669 11.837 2.36907 13.0873 3.61931C14.3375 4.86955 15.0399 6.56524 15.0399 8.33335Z" stroke="#EF4444" stroke-width="1.5" stroke-linecap="round" stroke-linejoin="round"/>
<path d="M8.37321 10.8334C9.75392 10.8334 10.8732 9.71407 10.8732 8.33335C10.8732 6.95264 9.75392 5.83335 8.37321 5.83335C6.9925 5.83335 5.87321 6.95264 5.87321 8.33335C5.87321 9.71407 6.9925 10.8334 8.37321 10.8334Z" stroke="#EF4444" stroke-width="1.5" stroke-linecap="round" stroke-linejoin="round"/>
</svg>
